<?xml version="1.0" encoding="utf-8" standalone="no"?>
<!DOCTYPE svg PUBLIC "-//W3C//DTD SVG 1.1//EN"
  "http://www.w3.org/Graphics/SVG/1.1/DTD/svg11.dtd">
<svg xmlns:xlink="http://www.w3.org/1999/xlink" width="432pt" height="288pt" viewBox="0 0 432 288" xmlns="http://www.w3.org/2000/svg" version="1.1">
 <metadata>
  <rdf:RDF xmlns:dc="http://purl.org/dc/elements/1.1/" xmlns:cc="http://creativecommons.org/ns#" xmlns:rdf="http://www.w3.org/1999/02/22-rdf-syntax-ns#">
   <cc:Work>
    <dc:type rdf:resource="http://purl.org/dc/dcmitype/StillImage"/>
    <dc:date>2026-04-26T12:15:58.940241</dc:date>
    <dc:format>image/svg+xml</dc:format>
    <dc:creator>
     <cc:Agent>
      <dc:title>Matplotlib v3.10.8, https://matplotlib.org/</dc:title>
     </cc:Agent>
    </dc:creator>
   </cc:Work>
  </rdf:RDF>
 </metadata>
 <defs>
  <style type="text/css">*{stroke-linejoin: round; stroke-linecap: butt}</style>
 </defs>
 <g id="figure_1">
  <g id="patch_1">
   <path d="M 0 288 
L 432 288 
L 432 0 
L 0 0 
z
" style="fill: #ffffff"/>
  </g>
  <g id="axes_1">
   <g id="patch_2">
    <path d="M 44.57 242.848256 
L 421.2 242.848256 
L 421.2 26.88 
L 44.57 26.88 
z
" style="fill: #ffffff"/>
   </g>
   <g id="patch_3">
    <path d="M 61.689545 242.848256 
L 83.467059 242.848256 
L 83.467059 132.095304 
L 61.689545 132.095304 
z
" clip-path="url(#p8cb3070db0)" style="fill: #1f77b4"/>
   </g>
   <g id="patch_4">
    <path d="M 152.429186 242.848256 
L 174.206699 242.848256 
L 174.206699 242.848256 
L 152.429186 242.848256 
z
" clip-path="url(#p8cb3070db0)" style="fill: #1f77b4"/>
   </g>
   <g id="patch_5">
    <path d="M 243.168826 242.848256 
L 264.94634 242.848256 
L 264.94634 195.382705 
L 243.168826 195.382705 
z
" clip-path="url(#p8cb3070db0)" style="fill: #1f77b4"/>
   </g>
   <g id="patch_6">
    <path d="M 333.908466 242.848256 
L 355.68598 242.848256 
L 355.68598 147.917154 
L 333.908466 147.917154 
z
" clip-path="url(#p8cb3070db0)" style="fill: #1f77b4"/>
   </g>
   <g id="patch_7">
    <path d="M 85.886783 242.848256 
L 107.664296 242.848256 
L 107.664296 132.095304 
L 85.886783 132.095304 
z
" clip-path="url(#p8cb3070db0)" style="fill: #ff7f0e"/>
   </g>
   <g id="patch_8">
    <path d="M 176.626423 242.848256 
L 198.403937 242.848256 
L 198.403937 242.848256 
L 176.626423 242.848256 
z
" clip-path="url(#p8cb3070db0)" style="fill: #ff7f0e"/>
   </g>
   <g id="patch_9">
    <path d="M 267.366063 242.848256 
L 289.143577 242.848256 
L 289.143577 195.382705 
L 267.366063 195.382705 
z
" clip-path="url(#p8cb3070db0)" style="fill: #ff7f0e"/>
   </g>
   <g id="patch_10">
    <path d="M 358.105704 242.848256 
L 379.883217 242.848256 
L 379.883217 147.917154 
L 358.105704 147.917154 
z
" clip-path="url(#p8cb3070db0)" style="fill: #ff7f0e"/>
   </g>
   <g id="patch_11">
    <path d="M 110.08402 242.848256 
L 131.861534 242.848256 
L 131.861534 242.848256 
L 110.08402 242.848256 
z
" clip-path="url(#p8cb3070db0)" style="fill: #2ca02c"/>
   </g>
   <g id="patch_12">
    <path d="M 200.82366 242.848256 
L 222.601174 242.848256 
L 222.601174 211.204555 
L 200.82366 211.204555 
z
" clip-path="url(#p8cb3070db0)" style="fill: #2ca02c"/>
   </g>
   <g id="patch_13">
    <path d="M 291.563301 242.848256 
L 313.340814 242.848256 
L 313.340814 37.164203 
L 291.563301 37.164203 
z
" clip-path="url(#p8cb3070db0)" style="fill: #2ca02c"/>
   </g>
   <g id="patch_14">
    <path d="M 382.302941 242.848256 
L 404.080455 242.848256 
L 404.080455 227.026405 
L 382.302941 227.026405 
z
" clip-path="url(#p8cb3070db0)" style="fill: #2ca02c"/>
   </g>
   <g id="matplotlib.axis_1">
    <g id="xtick_1">
     <g id="line2d_1">
      <defs>
       <path id="ma439dd2b59" d="M 0 0 
L 0 3.5 
" style="stroke: #000000; stroke-width: 0.8"/>
      </defs>
      <g>
       <use xlink:href="#ma439dd2b59" x="96.77554" y="242.848256" style="stroke: #000000; stroke-width: 0.8"/>
      </g>
     </g>
     <g id="text_1">
      <!-- add -->
      <g transform="translate(82.423413 261.722105) rotate(-25) scale(0.08 -0.08)">
       <defs>
        <path id="DejaVuSans-61" d="M 2194 1759 
Q 1497 1759 1228 1600 
Q 959 1441 959 1056 
Q 959 750 1161 570 
Q 1363 391 1709 391 
Q 2188 391 2477 730 
Q 2766 1069 2766 1631 
L 2766 1759 
L 2194 1759 
z
M 3341 1997 
L 3341 0 
L 2766 0 
L 2766 531 
Q 2569 213 2275 61 
Q 1981 -91 1556 -91 
Q 1019 -91 701 211 
Q 384 513 384 1019 
Q 384 1609 779 1909 
Q 1175 2209 1959 2209 
L 2766 2209 
L 2766 2266 
Q 2766 2663 2505 2880 
Q 2244 3097 1772 3097 
Q 1472 3097 1187 3025 
Q 903 2953 641 2809 
L 641 3341 
Q 956 3463 1253 3523 
Q 1550 3584 1831 3584 
Q 2591 3584 2966 3190 
Q 3341 2797 3341 1997 
z
" transform="scale(0.015625)"/>
        <path id="DejaVuSans-64" d="M 2906 2969 
L 2906 4863 
L 3481 4863 
L 3481 0 
L 2906 0 
L 2906 525 
Q 2725 213 2448 61 
Q 2172 -91 1784 -91 
Q 1150 -91 751 415 
Q 353 922 353 1747 
Q 353 2572 751 3078 
Q 1150 3584 1784 3584 
Q 2172 3584 2448 3432 
Q 2725 3281 2906 2969 
z
M 947 1747 
Q 947 1113 1208 752 
Q 1469 391 1925 391 
Q 2381 391 2643 752 
Q 2906 1113 2906 1747 
Q 2906 2381 2643 2742 
Q 2381 3103 1925 3103 
Q 1469 3103 1208 2742 
Q 947 2381 947 1747 
z
" transform="scale(0.015625)"/>
       </defs>
       <use xlink:href="#DejaVuSans-61"/>
       <use xlink:href="#DejaVuSans-64" transform="translate(61.279297 0)"/>
       <use xlink:href="#DejaVuSans-64" transform="translate(124.755859 0)"/>
      </g>
     </g>
    </g>
    <g id="xtick_2">
     <g id="line2d_2">
      <g>
       <use xlink:href="#ma439dd2b59" x="187.51518" y="242.848256" style="stroke: #000000; stroke-width: 0.8"/>
      </g>
     </g>
     <g id="text_2">
      <!-- dose_adjust -->
      <g transform="translate(143.54038 275.491536) rotate(-25) scale(0.08 -0.08)">
       <defs>
        <path id="DejaVuSans-6f" d="M 1959 3097 
Q 1497 3097 1228 2736 
Q 959 2375 959 1747 
Q 959 1119 1226 758 
Q 1494 397 1959 397 
Q 2419 397 2687 759 
Q 2956 1122 2956 1747 
Q 2956 2369 2687 2733 
Q 2419 3097 1959 3097 
z
M 1959 3584 
Q 2709 3584 3137 3096 
Q 3566 2609 3566 1747 
Q 3566 888 3137 398 
Q 2709 -91 1959 -91 
Q 1206 -91 779 398 
Q 353 888 353 1747 
Q 353 2609 779 3096 
Q 1206 3584 1959 3584 
z
" transform="scale(0.015625)"/>
        <path id="DejaVuSans-73" d="M 2834 3397 
L 2834 2853 
Q 2591 2978 2328 3040 
Q 2066 3103 1784 3103 
Q 1356 3103 1142 2972 
Q 928 2841 928 2578 
Q 928 2378 1081 2264 
Q 1234 2150 1697 2047 
L 1894 2003 
Q 2506 1872 2764 1633 
Q 3022 1394 3022 966 
Q 3022 478 2636 193 
Q 2250 -91 1575 -91 
Q 1294 -91 989 -36 
Q 684 19 347 128 
L 347 722 
Q 666 556 975 473 
Q 1284 391 1588 391 
Q 1994 391 2212 530 
Q 2431 669 2431 922 
Q 2431 1156 2273 1281 
Q 2116 1406 1581 1522 
L 1381 1569 
Q 847 1681 609 1914 
Q 372 2147 372 2553 
Q 372 3047 722 3315 
Q 1072 3584 1716 3584 
Q 2034 3584 2315 3537 
Q 2597 3491 2834 3397 
z
" transform="scale(0.015625)"/>
        <path id="DejaVuSans-65" d="M 3597 1894 
L 3597 1613 
L 953 1613 
Q 991 1019 1311 708 
Q 1631 397 2203 397 
Q 2534 397 2845 478 
Q 3156 559 3463 722 
L 3463 178 
Q 3153 47 2828 -22 
Q 2503 -91 2169 -91 
Q 1331 -91 842 396 
Q 353 884 353 1716 
Q 353 2575 817 3079 
Q 1281 3584 2069 3584 
Q 2775 3584 3186 3129 
Q 3597 2675 3597 1894 
z
M 3022 2063 
Q 3016 2534 2758 2815 
Q 2500 3097 2075 3097 
Q 1594 3097 1305 2825 
Q 1016 2553 972 2059 
L 3022 2063 
z
" transform="scale(0.015625)"/>
        <path id="DejaVuSans-5f" d="M 3263 -1063 
L 3263 -1509 
L -63 -1509 
L -63 -1063 
L 3263 -1063 
z
" transform="scale(0.015625)"/>
        <path id="DejaVuSans-6a" d="M 603 3500 
L 1178 3500 
L 1178 -63 
Q 1178 -731 923 -1031 
Q 669 -1331 103 -1331 
L -116 -1331 
L -116 -844 
L 38 -844 
Q 366 -844 484 -692 
Q 603 -541 603 -63 
L 603 3500 
z
M 603 4863 
L 1178 4863 
L 1178 4134 
L 603 4134 
L 603 4863 
z
" transform="scale(0.015625)"/>
        <path id="DejaVuSans-75" d="M 544 1381 
L 544 3500 
L 1119 3500 
L 1119 1403 
Q 1119 906 1312 657 
Q 1506 409 1894 409 
Q 2359 409 2629 706 
Q 2900 1003 2900 1516 
L 2900 3500 
L 3475 3500 
L 3475 0 
L 2900 0 
L 2900 538 
Q 2691 219 2414 64 
Q 2138 -91 1772 -91 
Q 1169 -91 856 284 
Q 544 659 544 1381 
z
M 1991 3584 
L 1991 3584 
z
" transform="scale(0.015625)"/>
        <path id="DejaVuSans-74" d="M 1172 4494 
L 1172 3500 
L 2356 3500 
L 2356 3053 
L 1172 3053 
L 1172 1153 
Q 1172 725 1289 603 
Q 1406 481 1766 481 
L 2356 481 
L 2356 0 
L 1766 0 
Q 1100 0 847 248 
Q 594 497 594 1153 
L 594 3053 
L 172 3053 
L 172 3500 
L 594 3500 
L 594 4494 
L 1172 4494 
z
" transform="scale(0.015625)"/>
       </defs>
       <use xlink:href="#DejaVuSans-64"/>
       <use xlink:href="#DejaVuSans-6f" transform="translate(63.476562 0)"/>
       <use xlink:href="#DejaVuSans-73" transform="translate(124.658203 0)"/>
       <use xlink:href="#DejaVuSans-65" transform="translate(176.757812 0)"/>
       <use xlink:href="#DejaVuSans-5f" transform="translate(238.28125 0)"/>
       <use xlink:href="#DejaVuSans-61" transform="translate(288.28125 0)"/>
       <use xlink:href="#DejaVuSans-64" transform="translate(349.560547 0)"/>
       <use xlink:href="#DejaVuSans-6a" transform="translate(413.037109 0)"/>
       <use xlink:href="#DejaVuSans-75" transform="translate(440.820312 0)"/>
       <use xlink:href="#DejaVuSans-73" transform="translate(504.199219 0)"/>
       <use xlink:href="#DejaVuSans-74" transform="translate(556.298828 0)"/>
      </g>
     </g>
    </g>
    <g id="xtick_3">
     <g id="line2d_3">
      <g>
       <use xlink:href="#ma439dd2b59" x="278.25482" y="242.848256" style="stroke: #000000; stroke-width: 0.8"/>
      </g>
     </g>
     <g id="text_3">
      <!-- noop -->
      <g transform="translate(259.481045 263.783954) rotate(-25) scale(0.08 -0.08)">
       <defs>
        <path id="DejaVuSans-6e" d="M 3513 2113 
L 3513 0 
L 2938 0 
L 2938 2094 
Q 2938 2591 2744 2837 
Q 2550 3084 2163 3084 
Q 1697 3084 1428 2787 
Q 1159 2491 1159 1978 
L 1159 0 
L 581 0 
L 581 3500 
L 1159 3500 
L 1159 2956 
Q 1366 3272 1645 3428 
Q 1925 3584 2291 3584 
Q 2894 3584 3203 3211 
Q 3513 2838 3513 2113 
z
" transform="scale(0.015625)"/>
        <path id="DejaVuSans-70" d="M 1159 525 
L 1159 -1331 
L 581 -1331 
L 581 3500 
L 1159 3500 
L 1159 2969 
Q 1341 3281 1617 3432 
Q 1894 3584 2278 3584 
Q 2916 3584 3314 3078 
Q 3713 2572 3713 1747 
Q 3713 922 3314 415 
Q 2916 -91 2278 -91 
Q 1894 -91 1617 61 
Q 1341 213 1159 525 
z
M 3116 1747 
Q 3116 2381 2855 2742 
Q 2594 3103 2138 3103 
Q 1681 3103 1420 2742 
Q 1159 2381 1159 1747 
Q 1159 1113 1420 752 
Q 1681 391 2138 391 
Q 2594 391 2855 752 
Q 3116 1113 3116 1747 
z
" transform="scale(0.015625)"/>
       </defs>
       <use xlink:href="#DejaVuSans-6e"/>
       <use xlink:href="#DejaVuSans-6f" transform="translate(63.378906 0)"/>
       <use xlink:href="#DejaVuSans-6f" transform="translate(124.560547 0)"/>
       <use xlink:href="#DejaVuSans-70" transform="translate(185.742188 0)"/>
      </g>
     </g>
    </g>
    <g id="xtick_4">
     <g id="line2d_4">
      <g>
       <use xlink:href="#ma439dd2b59" x="368.99446" y="242.848256" style="stroke: #000000; stroke-width: 0.8"/>
      </g>
     </g>
     <g id="text_4">
      <!-- start -->
      <g transform="translate(351.405682 263.231381) rotate(-25) scale(0.08 -0.08)">
       <defs>
        <path id="DejaVuSans-72" d="M 2631 2963 
Q 2534 3019 2420 3045 
Q 2306 3072 2169 3072 
Q 1681 3072 1420 2755 
Q 1159 2438 1159 1844 
L 1159 0 
L 581 0 
L 581 3500 
L 1159 3500 
L 1159 2956 
Q 1341 3275 1631 3429 
Q 1922 3584 2338 3584 
Q 2397 3584 2469 3576 
Q 2541 3569 2628 3553 
L 2631 2963 
z
" transform="scale(0.015625)"/>
       </defs>
       <use xlink:href="#DejaVuSans-73"/>
       <use xlink:href="#DejaVuSans-74" transform="translate(52.099609 0)"/>
       <use xlink:href="#DejaVuSans-61" transform="translate(91.308594 0)"/>
       <use xlink:href="#DejaVuSans-72" transform="translate(152.587891 0)"/>
       <use xlink:href="#DejaVuSans-74" transform="translate(193.701172 0)"/>
      </g>
     </g>
    </g>
   </g>
   <g id="matplotlib.axis_2">
    <g id="ytick_1">
     <g id="line2d_5">
      <path d="M 44.57 242.848256 
L 421.2 242.848256 
" clip-path="url(#p8cb3070db0)" style="fill: none; stroke: #b0b0b0; stroke-opacity: 0.35; stroke-width: 0.8; stroke-linecap: square"/>
     </g>
     <g id="line2d_6">
      <defs>
       <path id="mf17f3787d1" d="M 0 0 
L -3.5 0 
" style="stroke: #000000; stroke-width: 0.8"/>
      </defs>
      <g>
       <use xlink:href="#mf17f3787d1" x="44.57" y="242.848256" style="stroke: #000000; stroke-width: 0.8"/>
      </g>
     </g>
     <g id="text_5">
      <!-- 0 -->
      <g transform="translate(31.2075 246.647474) scale(0.1 -0.1)">
       <defs>
        <path id="DejaVuSans-30" d="M 2034 4250 
Q 1547 4250 1301 3770 
Q 1056 3291 1056 2328 
Q 1056 1369 1301 889 
Q 1547 409 2034 409 
Q 2525 409 2770 889 
Q 3016 1369 3016 2328 
Q 3016 3291 2770 3770 
Q 2525 4250 2034 4250 
z
M 2034 4750 
Q 2819 4750 3233 4129 
Q 3647 3509 3647 2328 
Q 3647 1150 3233 529 
Q 2819 -91 2034 -91 
Q 1250 -91 836 529 
Q 422 1150 422 2328 
Q 422 3509 836 4129 
Q 1250 4750 2034 4750 
z
" transform="scale(0.015625)"/>
       </defs>
       <use xlink:href="#DejaVuSans-30"/>
      </g>
     </g>
    </g>
    <g id="ytick_2">
     <g id="line2d_7">
      <path d="M 44.57 211.204555 
L 421.2 211.204555 
" clip-path="url(#p8cb3070db0)" style="fill: none; stroke: #b0b0b0; stroke-opacity: 0.35; stroke-width: 0.8; stroke-linecap: square"/>
     </g>
     <g id="line2d_8">
      <g>
       <use xlink:href="#mf17f3787d1" x="44.57" y="211.204555" style="stroke: #000000; stroke-width: 0.8"/>
      </g>
     </g>
     <g id="text_6">
      <!-- 2 -->
      <g transform="translate(31.2075 215.003774) scale(0.1 -0.1)">
       <defs>
        <path id="DejaVuSans-32" d="M 1228 531 
L 3431 531 
L 3431 0 
L 469 0 
L 469 531 
Q 828 903 1448 1529 
Q 2069 2156 2228 2338 
Q 2531 2678 2651 2914 
Q 2772 3150 2772 3378 
Q 2772 3750 2511 3984 
Q 2250 4219 1831 4219 
Q 1534 4219 1204 4116 
Q 875 4013 500 3803 
L 500 4441 
Q 881 4594 1212 4672 
Q 1544 4750 1819 4750 
Q 2544 4750 2975 4387 
Q 3406 4025 3406 3419 
Q 3406 3131 3298 2873 
Q 3191 2616 2906 2266 
Q 2828 2175 2409 1742 
Q 1991 1309 1228 531 
z
" transform="scale(0.015625)"/>
       </defs>
       <use xlink:href="#DejaVuSans-32"/>
      </g>
     </g>
    </g>
    <g id="ytick_3">
     <g id="line2d_9">
      <path d="M 44.57 179.560855 
L 421.2 179.560855 
" clip-path="url(#p8cb3070db0)" style="fill: none; stroke: #b0b0b0; stroke-opacity: 0.35; stroke-width: 0.8; stroke-linecap: square"/>
     </g>
     <g id="line2d_10">
      <g>
       <use xlink:href="#mf17f3787d1" x="44.57" y="179.560855" style="stroke: #000000; stroke-width: 0.8"/>
      </g>
     </g>
     <g id="text_7">
      <!-- 4 -->
      <g transform="translate(31.2075 183.360074) scale(0.1 -0.1)">
       <defs>
        <path id="DejaVuSans-34" d="M 2419 4116 
L 825 1625 
L 2419 1625 
L 2419 4116 
z
M 2253 4666 
L 3047 4666 
L 3047 1625 
L 3713 1625 
L 3713 1100 
L 3047 1100 
L 3047 0 
L 2419 0 
L 2419 1100 
L 313 1100 
L 313 1709 
L 2253 4666 
z
" transform="scale(0.015625)"/>
       </defs>
       <use xlink:href="#DejaVuSans-34"/>
      </g>
     </g>
    </g>
    <g id="ytick_4">
     <g id="line2d_11">
      <path d="M 44.57 147.917154 
L 421.2 147.917154 
" clip-path="url(#p8cb3070db0)" style="fill: none; stroke: #b0b0b0; stroke-opacity: 0.35; stroke-width: 0.8; stroke-linecap: square"/>
     </g>
     <g id="line2d_12">
      <g>
       <use xlink:href="#mf17f3787d1" x="44.57" y="147.917154" style="stroke: #000000; stroke-width: 0.8"/>
      </g>
     </g>
     <g id="text_8">
      <!-- 6 -->
      <g transform="translate(31.2075 151.716373) scale(0.1 -0.1)">
       <defs>
        <path id="DejaVuSans-36" d="M 2113 2584 
Q 1688 2584 1439 2293 
Q 1191 2003 1191 1497 
Q 1191 994 1439 701 
Q 1688 409 2113 409 
Q 2538 409 2786 701 
Q 3034 994 3034 1497 
Q 3034 2003 2786 2293 
Q 2538 2584 2113 2584 
z
M 3366 4563 
L 3366 3988 
Q 3128 4100 2886 4159 
Q 2644 4219 2406 4219 
Q 1781 4219 1451 3797 
Q 1122 3375 1075 2522 
Q 1259 2794 1537 2939 
Q 1816 3084 2150 3084 
Q 2853 3084 3261 2657 
Q 3669 2231 3669 1497 
Q 3669 778 3244 343 
Q 2819 -91 2113 -91 
Q 1303 -91 875 529 
Q 447 1150 447 2328 
Q 447 3434 972 4092 
Q 1497 4750 2381 4750 
Q 2619 4750 2861 4703 
Q 3103 4656 3366 4563 
z
" transform="scale(0.015625)"/>
       </defs>
       <use xlink:href="#DejaVuSans-36"/>
      </g>
     </g>
    </g>
    <g id="ytick_5">
     <g id="line2d_13">
      <path d="M 44.57 116.273454 
L 421.2 116.273454 
" clip-path="url(#p8cb3070db0)" style="fill: none; stroke: #b0b0b0; stroke-opacity: 0.35; stroke-width: 0.8; stroke-linecap: square"/>
     </g>
     <g id="line2d_14">
      <g>
       <use xlink:href="#mf17f3787d1" x="44.57" y="116.273454" style="stroke: #000000; stroke-width: 0.8"/>
      </g>
     </g>
     <g id="text_9">
      <!-- 8 -->
      <g transform="translate(31.2075 120.072673) scale(0.1 -0.1)">
       <defs>
        <path id="DejaVuSans-38" d="M 2034 2216 
Q 1584 2216 1326 1975 
Q 1069 1734 1069 1313 
Q 1069 891 1326 650 
Q 1584 409 2034 409 
Q 2484 409 2743 651 
Q 3003 894 3003 1313 
Q 3003 1734 2745 1975 
Q 2488 2216 2034 2216 
z
M 1403 2484 
Q 997 2584 770 2862 
Q 544 3141 544 3541 
Q 544 4100 942 4425 
Q 1341 4750 2034 4750 
Q 2731 4750 3128 4425 
Q 3525 4100 3525 3541 
Q 3525 3141 3298 2862 
Q 3072 2584 2669 2484 
Q 3125 2378 3379 2068 
Q 3634 1759 3634 1313 
Q 3634 634 3220 271 
Q 2806 -91 2034 -91 
Q 1263 -91 848 271 
Q 434 634 434 1313 
Q 434 1759 690 2068 
Q 947 2378 1403 2484 
z
M 1172 3481 
Q 1172 3119 1398 2916 
Q 1625 2713 2034 2713 
Q 2441 2713 2670 2916 
Q 2900 3119 2900 3481 
Q 2900 3844 2670 4047 
Q 2441 4250 2034 4250 
Q 1625 4250 1398 4047 
Q 1172 3844 1172 3481 
z
" transform="scale(0.015625)"/>
       </defs>
       <use xlink:href="#DejaVuSans-38"/>
      </g>
     </g>
    </g>
    <g id="ytick_6">
     <g id="line2d_15">
      <path d="M 44.57 84.629753 
L 421.2 84.629753 
" clip-path="url(#p8cb3070db0)" style="fill: none; stroke: #b0b0b0; stroke-opacity: 0.35; stroke-width: 0.8; stroke-linecap: square"/>
     </g>
     <g id="line2d_16">
      <g>
       <use xlink:href="#mf17f3787d1" x="44.57" y="84.629753" style="stroke: #000000; stroke-width: 0.8"/>
      </g>
     </g>
     <g id="text_10">
      <!-- 10 -->
      <g transform="translate(24.845 88.428972) scale(0.1 -0.1)">
       <defs>
        <path id="DejaVuSans-31" d="M 794 531 
L 1825 531 
L 1825 4091 
L 703 3866 
L 703 4441 
L 1819 4666 
L 2450 4666 
L 2450 531 
L 3481 531 
L 3481 0 
L 794 0 
L 794 531 
z
" transform="scale(0.015625)"/>
       </defs>
       <use xlink:href="#DejaVuSans-31"/>
       <use xlink:href="#DejaVuSans-30" transform="translate(63.623047 0)"/>
      </g>
     </g>
    </g>
    <g id="ytick_7">
     <g id="line2d_17">
      <path d="M 44.57 52.986053 
L 421.2 52.986053 
" clip-path="url(#p8cb3070db0)" style="fill: none; stroke: #b0b0b0; stroke-opacity: 0.35; stroke-width: 0.8; stroke-linecap: square"/>
     </g>
     <g id="line2d_18">
      <g>
       <use xlink:href="#mf17f3787d1" x="44.57" y="52.986053" style="stroke: #000000; stroke-width: 0.8"/>
      </g>
     </g>
     <g id="text_11">
      <!-- 12 -->
      <g transform="translate(24.845 56.785272) scale(0.1 -0.1)">
       <use xlink:href="#DejaVuSans-31"/>
       <use xlink:href="#DejaVuSans-32" transform="translate(63.623047 0)"/>
      </g>
     </g>
    </g>
    <g id="text_12">
     <!-- Count (same example episode as clinical plots) -->
     <g transform="translate(18.765313 252.985222) rotate(-90) scale(0.1 -0.1)">
      <defs>
       <path id="DejaVuSans-43" d="M 4122 4306 
L 4122 3641 
Q 3803 3938 3442 4084 
Q 3081 4231 2675 4231 
Q 1875 4231 1450 3742 
Q 1025 3253 1025 2328 
Q 1025 1406 1450 917 
Q 1875 428 2675 428 
Q 3081 428 3442 575 
Q 3803 722 4122 1019 
L 4122 359 
Q 3791 134 3420 21 
Q 3050 -91 2638 -91 
Q 1578 -91 968 557 
Q 359 1206 359 2328 
Q 359 3453 968 4101 
Q 1578 4750 2638 4750 
Q 3056 4750 3426 4639 
Q 3797 4528 4122 4306 
z
" transform="scale(0.015625)"/>
       <path id="DejaVuSans-20" transform="scale(0.015625)"/>
       <path id="DejaVuSans-28" d="M 1984 4856 
Q 1566 4138 1362 3434 
Q 1159 2731 1159 2009 
Q 1159 1288 1364 580 
Q 1569 -128 1984 -844 
L 1484 -844 
Q 1016 -109 783 600 
Q 550 1309 550 2009 
Q 550 2706 781 3412 
Q 1013 4119 1484 4856 
L 1984 4856 
z
" transform="scale(0.015625)"/>
       <path id="DejaVuSans-6d" d="M 3328 2828 
Q 3544 3216 3844 3400 
Q 4144 3584 4550 3584 
Q 5097 3584 5394 3201 
Q 5691 2819 5691 2113 
L 5691 0 
L 5113 0 
L 5113 2094 
Q 5113 2597 4934 2840 
Q 4756 3084 4391 3084 
Q 3944 3084 3684 2787 
Q 3425 2491 3425 1978 
L 3425 0 
L 2847 0 
L 2847 2094 
Q 2847 2600 2669 2842 
Q 2491 3084 2119 3084 
Q 1678 3084 1418 2786 
Q 1159 2488 1159 1978 
L 1159 0 
L 581 0 
L 581 3500 
L 1159 3500 
L 1159 2956 
Q 1356 3278 1631 3431 
Q 1906 3584 2284 3584 
Q 2666 3584 2933 3390 
Q 3200 3197 3328 2828 
z
" transform="scale(0.015625)"/>
       <path id="DejaVuSans-78" d="M 3513 3500 
L 2247 1797 
L 3578 0 
L 2900 0 
L 1881 1375 
L 863 0 
L 184 0 
L 1544 1831 
L 300 3500 
L 978 3500 
L 1906 2253 
L 2834 3500 
L 3513 3500 
z
" transform="scale(0.015625)"/>
       <path id="DejaVuSans-6c" d="M 603 4863 
L 1178 4863 
L 1178 0 
L 603 0 
L 603 4863 
z
" transform="scale(0.015625)"/>
       <path id="DejaVuSans-69" d="M 603 3500 
L 1178 3500 
L 1178 0 
L 603 0 
L 603 3500 
z
M 603 4863 
L 1178 4863 
L 1178 4134 
L 603 4134 
L 603 4863 
z
" transform="scale(0.015625)"/>
       <path id="DejaVuSans-63" d="M 3122 3366 
L 3122 2828 
Q 2878 2963 2633 3030 
Q 2388 3097 2138 3097 
Q 1578 3097 1268 2742 
Q 959 2388 959 1747 
Q 959 1106 1268 751 
Q 1578 397 2138 397 
Q 2388 397 2633 464 
Q 2878 531 3122 666 
L 3122 134 
Q 2881 22 2623 -34 
Q 2366 -91 2075 -91 
Q 1284 -91 818 406 
Q 353 903 353 1747 
Q 353 2603 823 3093 
Q 1294 3584 2113 3584 
Q 2378 3584 2631 3529 
Q 2884 3475 3122 3366 
z
" transform="scale(0.015625)"/>
       <path id="DejaVuSans-29" d="M 513 4856 
L 1013 4856 
Q 1481 4119 1714 3412 
Q 1947 2706 1947 2009 
Q 1947 1309 1714 600 
Q 1481 -109 1013 -844 
L 513 -844 
Q 928 -128 1133 580 
Q 1338 1288 1338 2009 
Q 1338 2731 1133 3434 
Q 928 4138 513 4856 
z
" transform="scale(0.015625)"/>
      </defs>
      <use xlink:href="#DejaVuSans-43"/>
      <use xlink:href="#DejaVuSans-6f" transform="translate(69.824219 0)"/>
      <use xlink:href="#DejaVuSans-75" transform="translate(131.005859 0)"/>
      <use xlink:href="#DejaVuSans-6e" transform="translate(194.384766 0)"/>
      <use xlink:href="#DejaVuSans-74" transform="translate(257.763672 0)"/>
      <use xlink:href="#DejaVuSans-20" transform="translate(296.972656 0)"/>
      <use xlink:href="#DejaVuSans-28" transform="translate(328.759766 0)"/>
      <use xlink:href="#DejaVuSans-73" transform="translate(367.773438 0)"/>
      <use xlink:href="#DejaVuSans-61" transform="translate(419.873047 0)"/>
      <use xlink:href="#DejaVuSans-6d" transform="translate(481.152344 0)"/>
      <use xlink:href="#DejaVuSans-65" transform="translate(578.564453 0)"/>
      <use xlink:href="#DejaVuSans-20" transform="translate(640.087891 0)"/>
      <use xlink:href="#DejaVuSans-65" transform="translate(671.875 0)"/>
      <use xlink:href="#DejaVuSans-78" transform="translate(731.648438 0)"/>
      <use xlink:href="#DejaVuSans-61" transform="translate(790.828125 0)"/>
      <use xlink:href="#DejaVuSans-6d" transform="translate(852.107422 0)"/>
      <use xlink:href="#DejaVuSans-70" transform="translate(949.519531 0)"/>
      <use xlink:href="#DejaVuSans-6c" transform="translate(1012.996094 0)"/>
      <use xlink:href="#DejaVuSans-65" transform="translate(1040.779297 0)"/>
      <use xlink:href="#DejaVuSans-20" transform="translate(1102.302734 0)"/>
      <use xlink:href="#DejaVuSans-65" transform="translate(1134.089844 0)"/>
      <use xlink:href="#DejaVuSans-70" transform="translate(1195.613281 0)"/>
      <use xlink:href="#DejaVuSans-69" transform="translate(1259.089844 0)"/>
      <use xlink:href="#DejaVuSans-73" transform="translate(1286.873047 0)"/>
      <use xlink:href="#DejaVuSans-6f" transform="translate(1338.972656 0)"/>
      <use xlink:href="#DejaVuSans-64" transform="translate(1400.154297 0)"/>
      <use xlink:href="#DejaVuSans-65" transform="translate(1463.630859 0)"/>
      <use xlink:href="#DejaVuSans-20" transform="translate(1525.154297 0)"/>
      <use xlink:href="#DejaVuSans-61" transform="translate(1556.941406 0)"/>
      <use xlink:href="#DejaVuSans-73" transform="translate(1618.220703 0)"/>
      <use xlink:href="#DejaVuSans-20" transform="translate(1670.320312 0)"/>
      <use xlink:href="#DejaVuSans-63" transform="translate(1702.107422 0)"/>
      <use xlink:href="#DejaVuSans-6c" transform="translate(1757.087891 0)"/>
      <use xlink:href="#DejaVuSans-69" transform="translate(1784.871094 0)"/>
      <use xlink:href="#DejaVuSans-6e" transform="translate(1812.654297 0)"/>
      <use xlink:href="#DejaVuSans-69" transform="translate(1876.033203 0)"/>
      <use xlink:href="#DejaVuSans-63" transform="translate(1903.816406 0)"/>
      <use xlink:href="#DejaVuSans-61" transform="translate(1958.796875 0)"/>
      <use xlink:href="#DejaVuSans-6c" transform="translate(2020.076172 0)"/>
      <use xlink:href="#DejaVuSans-20" transform="translate(2047.859375 0)"/>
      <use xlink:href="#DejaVuSans-70" transform="translate(2079.646484 0)"/>
      <use xlink:href="#DejaVuSans-6c" transform="translate(2143.123047 0)"/>
      <use xlink:href="#DejaVuSans-6f" transform="translate(2170.90625 0)"/>
      <use xlink:href="#DejaVuSans-74" transform="translate(2232.087891 0)"/>
      <use xlink:href="#DejaVuSans-73" transform="translate(2271.296875 0)"/>
      <use xlink:href="#DejaVuSans-29" transform="translate(2323.396484 0)"/>
     </g>
    </g>
   </g>
   <g id="patch_15">
    <path d="M 44.57 242.848256 
L 44.57 26.88 
" style="fill: none; stroke: #000000; stroke-width: 0.8; stroke-linejoin: miter; stroke-linecap: square"/>
   </g>
   <g id="patch_16">
    <path d="M 421.2 242.848256 
L 421.2 26.88 
" style="fill: none; stroke: #000000; stroke-width: 0.8; stroke-linejoin: miter; stroke-linecap: square"/>
   </g>
   <g id="patch_17">
    <path d="M 44.57 242.848256 
L 421.2 242.848256 
" style="fill: none; stroke: #000000; stroke-width: 0.8; stroke-linejoin: miter; stroke-linecap: square"/>
   </g>
   <g id="patch_18">
    <path d="M 44.57 26.88 
L 421.2 26.88 
" style="fill: none; stroke: #000000; stroke-width: 0.8; stroke-linejoin: miter; stroke-linecap: square"/>
   </g>
   <g id="text_13">
    <!-- Action types taken (from env action_parser) -->
    <g transform="translate(100.856875 20.88) scale(0.12 -0.12)">
     <defs>
      <path id="DejaVuSans-41" d="M 2188 4044 
L 1331 1722 
L 3047 1722 
L 2188 4044 
z
M 1831 4666 
L 2547 4666 
L 4325 0 
L 3669 0 
L 3244 1197 
L 1141 1197 
L 716 0 
L 50 0 
L 1831 4666 
z
" transform="scale(0.015625)"/>
      <path id="DejaVuSans-79" d="M 2059 -325 
Q 1816 -950 1584 -1140 
Q 1353 -1331 966 -1331 
L 506 -1331 
L 506 -850 
L 844 -850 
Q 1081 -850 1212 -737 
Q 1344 -625 1503 -206 
L 1606 56 
L 191 3500 
L 800 3500 
L 1894 763 
L 2988 3500 
L 3597 3500 
L 2059 -325 
z
" transform="scale(0.015625)"/>
      <path id="DejaVuSans-6b" d="M 581 4863 
L 1159 4863 
L 1159 1991 
L 2875 3500 
L 3609 3500 
L 1753 1863 
L 3688 0 
L 2938 0 
L 1159 1709 
L 1159 0 
L 581 0 
L 581 4863 
z
" transform="scale(0.015625)"/>
      <path id="DejaVuSans-66" d="M 2375 4863 
L 2375 4384 
L 1825 4384 
Q 1516 4384 1395 4259 
Q 1275 4134 1275 3809 
L 1275 3500 
L 2222 3500 
L 2222 3053 
L 1275 3053 
L 1275 0 
L 697 0 
L 697 3053 
L 147 3053 
L 147 3500 
L 697 3500 
L 697 3744 
Q 697 4328 969 4595 
Q 1241 4863 1831 4863 
L 2375 4863 
z
" transform="scale(0.015625)"/>
      <path id="DejaVuSans-76" d="M 191 3500 
L 800 3500 
L 1894 563 
L 2988 3500 
L 3597 3500 
L 2284 0 
L 1503 0 
L 191 3500 
z
" transform="scale(0.015625)"/>
     </defs>
     <use xlink:href="#DejaVuSans-41"/>
     <use xlink:href="#DejaVuSans-63" transform="translate(66.658203 0)"/>
     <use xlink:href="#DejaVuSans-74" transform="translate(121.638672 0)"/>
     <use xlink:href="#DejaVuSans-69" transform="translate(160.847656 0)"/>
     <use xlink:href="#DejaVuSans-6f" transform="translate(188.630859 0)"/>
     <use xlink:href="#DejaVuSans-6e" transform="translate(249.8125 0)"/>
     <use xlink:href="#DejaVuSans-20" transform="translate(313.191406 0)"/>
     <use xlink:href="#DejaVuSans-74" transform="translate(344.978516 0)"/>
     <use xlink:href="#DejaVuSans-79" transform="translate(384.1875 0)"/>
     <use xlink:href="#DejaVuSans-70" transform="translate(443.367188 0)"/>
     <use xlink:href="#DejaVuSans-65" transform="translate(506.84375 0)"/>
     <use xlink:href="#DejaVuSans-73" transform="translate(568.367188 0)"/>
     <use xlink:href="#DejaVuSans-20" transform="translate(620.466797 0)"/>
     <use xlink:href="#DejaVuSans-74" transform="translate(652.253906 0)"/>
     <use xlink:href="#DejaVuSans-61" transform="translate(691.462891 0)"/>
     <use xlink:href="#DejaVuSans-6b" transform="translate(752.742188 0)"/>
     <use xlink:href="#DejaVuSans-65" transform="translate(807.027344 0)"/>
     <use xlink:href="#DejaVuSans-6e" transform="translate(868.550781 0)"/>
     <use xlink:href="#DejaVuSans-20" transform="translate(931.929688 0)"/>
     <use xlink:href="#DejaVuSans-28" transform="translate(963.716797 0)"/>
     <use xlink:href="#DejaVuSans-66" transform="translate(1002.730469 0)"/>
     <use xlink:href="#DejaVuSans-72" transform="translate(1037.935547 0)"/>
     <use xlink:href="#DejaVuSans-6f" transform="translate(1076.798828 0)"/>
     <use xlink:href="#DejaVuSans-6d" transform="translate(1137.980469 0)"/>
     <use xlink:href="#DejaVuSans-20" transform="translate(1235.392578 0)"/>
     <use xlink:href="#DejaVuSans-65" transform="translate(1267.179688 0)"/>
     <use xlink:href="#DejaVuSans-6e" transform="translate(1328.703125 0)"/>
     <use xlink:href="#DejaVuSans-76" transform="translate(1392.082031 0)"/>
     <use xlink:href="#DejaVuSans-20" transform="translate(1451.261719 0)"/>
     <use xlink:href="#DejaVuSans-61" transform="translate(1483.048828 0)"/>
     <use xlink:href="#DejaVuSans-63" transform="translate(1544.328125 0)"/>
     <use xlink:href="#DejaVuSans-74" transform="translate(1599.308594 0)"/>
     <use xlink:href="#DejaVuSans-69" transform="translate(1638.517578 0)"/>
     <use xlink:href="#DejaVuSans-6f" transform="translate(1666.300781 0)"/>
     <use xlink:href="#DejaVuSans-6e" transform="translate(1727.482422 0)"/>
     <use xlink:href="#DejaVuSans-5f" transform="translate(1790.861328 0)"/>
     <use xlink:href="#DejaVuSans-70" transform="translate(1840.861328 0)"/>
     <use xlink:href="#DejaVuSans-61" transform="translate(1904.337891 0)"/>
     <use xlink:href="#DejaVuSans-72" transform="translate(1965.617188 0)"/>
     <use xlink:href="#DejaVuSans-73" transform="translate(2006.730469 0)"/>
     <use xlink:href="#DejaVuSans-65" transform="translate(2058.830078 0)"/>
     <use xlink:href="#DejaVuSans-72" transform="translate(2120.353516 0)"/>
     <use xlink:href="#DejaVuSans-29" transform="translate(2161.466797 0)"/>
    </g>
   </g>
   <g id="legend_1">
    <g id="patch_19">
     <path d="M 49.47 63.304062 
L 207.099063 63.304062 
Q 208.499063 63.304062 208.499063 61.904062 
L 208.499063 31.78 
Q 208.499063 30.38 207.099063 30.38 
L 49.47 30.38 
Q 48.07 30.38 48.07 31.78 
L 48.07 61.904062 
Q 48.07 63.304062 49.47 63.304062 
z
" style="fill: #ffffff; opacity: 0.8; stroke: #cccccc; stroke-linejoin: miter"/>
    </g>
    <g id="patch_20">
     <path d="M 50.87 38.498906 
L 64.87 38.498906 
L 64.87 33.598906 
L 50.87 33.598906 
z
" style="fill: #1f77b4"/>
    </g>
    <g id="text_14">
     <!-- Random policy -->
     <g transform="translate(70.47 38.498906) scale(0.07 -0.07)">
      <defs>
       <path id="DejaVuSans-52" d="M 2841 2188 
Q 3044 2119 3236 1894 
Q 3428 1669 3622 1275 
L 4263 0 
L 3584 0 
L 2988 1197 
Q 2756 1666 2539 1819 
Q 2322 1972 1947 1972 
L 1259 1972 
L 1259 0 
L 628 0 
L 628 4666 
L 2053 4666 
Q 2853 4666 3247 4331 
Q 3641 3997 3641 3322 
Q 3641 2881 3436 2590 
Q 3231 2300 2841 2188 
z
M 1259 4147 
L 1259 2491 
L 2053 2491 
Q 2509 2491 2742 2702 
Q 2975 2913 2975 3322 
Q 2975 3731 2742 3939 
Q 2509 4147 2053 4147 
L 1259 4147 
z
" transform="scale(0.015625)"/>
      </defs>
      <use xlink:href="#DejaVuSans-52"/>
      <use xlink:href="#DejaVuSans-61" transform="translate(67.232422 0)"/>
      <use xlink:href="#DejaVuSans-6e" transform="translate(128.511719 0)"/>
      <use xlink:href="#DejaVuSans-64" transform="translate(191.890625 0)"/>
      <use xlink:href="#DejaVuSans-6f" transform="translate(255.367188 0)"/>
      <use xlink:href="#DejaVuSans-6d" transform="translate(316.548828 0)"/>
      <use xlink:href="#DejaVuSans-20" transform="translate(413.960938 0)"/>
      <use xlink:href="#DejaVuSans-70" transform="translate(445.748047 0)"/>
      <use xlink:href="#DejaVuSans-6f" transform="translate(509.224609 0)"/>
      <use xlink:href="#DejaVuSans-6c" transform="translate(570.40625 0)"/>
      <use xlink:href="#DejaVuSans-69" transform="translate(598.189453 0)"/>
      <use xlink:href="#DejaVuSans-63" transform="translate(625.972656 0)"/>
      <use xlink:href="#DejaVuSans-79" transform="translate(680.953125 0)"/>
     </g>
    </g>
    <g id="patch_21">
     <path d="M 50.87 48.773594 
L 64.87 48.773594 
L 64.87 43.873594 
L 50.87 43.873594 
z
" style="fill: #ff7f0e"/>
    </g>
    <g id="text_15">
     <!-- Trained small LM (distilgpt2) -->
     <g transform="translate(70.47 48.773594) scale(0.07 -0.07)">
      <defs>
       <path id="DejaVuSans-54" d="M -19 4666 
L 3928 4666 
L 3928 4134 
L 2272 4134 
L 2272 0 
L 1638 0 
L 1638 4134 
L -19 4134 
L -19 4666 
z
" transform="scale(0.015625)"/>
       <path id="DejaVuSans-4c" d="M 628 4666 
L 1259 4666 
L 1259 531 
L 3531 531 
L 3531 0 
L 628 0 
L 628 4666 
z
" transform="scale(0.015625)"/>
       <path id="DejaVuSans-4d" d="M 628 4666 
L 1569 4666 
L 2759 1491 
L 3956 4666 
L 4897 4666 
L 4897 0 
L 4281 0 
L 4281 4097 
L 3078 897 
L 2444 897 
L 1241 4097 
L 1241 0 
L 628 0 
L 628 4666 
z
" transform="scale(0.015625)"/>
       <path id="DejaVuSans-67" d="M 2906 1791 
Q 2906 2416 2648 2759 
Q 2391 3103 1925 3103 
Q 1463 3103 1205 2759 
Q 947 2416 947 1791 
Q 947 1169 1205 825 
Q 1463 481 1925 481 
Q 2391 481 2648 825 
Q 2906 1169 2906 1791 
z
M 3481 434 
Q 3481 -459 3084 -895 
Q 2688 -1331 1869 -1331 
Q 1566 -1331 1297 -1286 
Q 1028 -1241 775 -1147 
L 775 -588 
Q 1028 -725 1275 -790 
Q 1522 -856 1778 -856 
Q 2344 -856 2625 -561 
Q 2906 -266 2906 331 
L 2906 616 
Q 2728 306 2450 153 
Q 2172 0 1784 0 
Q 1141 0 747 490 
Q 353 981 353 1791 
Q 353 2603 747 3093 
Q 1141 3584 1784 3584 
Q 2172 3584 2450 3431 
Q 2728 3278 2906 2969 
L 2906 3500 
L 3481 3500 
L 3481 434 
z
" transform="scale(0.015625)"/>
      </defs>
      <use xlink:href="#DejaVuSans-54"/>
      <use xlink:href="#DejaVuSans-72" transform="translate(46.333984 0)"/>
      <use xlink:href="#DejaVuSans-61" transform="translate(87.447266 0)"/>
      <use xlink:href="#DejaVuSans-69" transform="translate(148.726562 0)"/>
      <use xlink:href="#DejaVuSans-6e" transform="translate(176.509766 0)"/>
      <use xlink:href="#DejaVuSans-65" transform="translate(239.888672 0)"/>
      <use xlink:href="#DejaVuSans-64" transform="translate(301.412109 0)"/>
      <use xlink:href="#DejaVuSans-20" transform="translate(364.888672 0)"/>
      <use xlink:href="#DejaVuSans-73" transform="translate(396.675781 0)"/>
      <use xlink:href="#DejaVuSans-6d" transform="translate(448.775391 0)"/>
      <use xlink:href="#DejaVuSans-61" transform="translate(546.1875 0)"/>
      <use xlink:href="#DejaVuSans-6c" transform="translate(607.466797 0)"/>
      <use xlink:href="#DejaVuSans-6c" transform="translate(635.25 0)"/>
      <use xlink:href="#DejaVuSans-20" transform="translate(663.033203 0)"/>
      <use xlink:href="#DejaVuSans-4c" transform="translate(694.820312 0)"/>
      <use xlink:href="#DejaVuSans-4d" transform="translate(750.533203 0)"/>
      <use xlink:href="#DejaVuSans-20" transform="translate(836.8125 0)"/>
      <use xlink:href="#DejaVuSans-28" transform="translate(868.599609 0)"/>
      <use xlink:href="#DejaVuSans-64" transform="translate(907.613281 0)"/>
      <use xlink:href="#DejaVuSans-69" transform="translate(971.089844 0)"/>
      <use xlink:href="#DejaVuSans-73" transform="translate(998.873047 0)"/>
      <use xlink:href="#DejaVuSans-74" transform="translate(1050.972656 0)"/>
      <use xlink:href="#DejaVuSans-69" transform="translate(1090.181641 0)"/>
      <use xlink:href="#DejaVuSans-6c" transform="translate(1117.964844 0)"/>
      <use xlink:href="#DejaVuSans-67" transform="translate(1145.748047 0)"/>
      <use xlink:href="#DejaVuSans-70" transform="translate(1209.224609 0)"/>
      <use xlink:href="#DejaVuSans-74" transform="translate(1272.701172 0)"/>
      <use xlink:href="#DejaVuSans-32" transform="translate(1311.910156 0)"/>
      <use xlink:href="#DejaVuSans-29" transform="translate(1375.533203 0)"/>
     </g>
    </g>
    <g id="patch_22">
     <path d="M 50.87 59.048281 
L 64.87 59.048281 
L 64.87 54.148281 
L 50.87 54.148281 
z
" style="fill: #2ca02c"/>
    </g>
    <g id="text_16">
     <!-- Council + self-repair (one example ep) -->
     <g transform="translate(70.47 59.048281) scale(0.07 -0.07)">
      <defs>
       <path id="DejaVuSans-2b" d="M 2944 4013 
L 2944 2272 
L 4684 2272 
L 4684 1741 
L 2944 1741 
L 2944 0 
L 2419 0 
L 2419 1741 
L 678 1741 
L 678 2272 
L 2419 2272 
L 2419 4013 
L 2944 4013 
z
" transform="scale(0.015625)"/>
       <path id="DejaVuSans-2d" d="M 313 2009 
L 1997 2009 
L 1997 1497 
L 313 1497 
L 313 2009 
z
" transform="scale(0.015625)"/>
      </defs>
      <use xlink:href="#DejaVuSans-43"/>
      <use xlink:href="#DejaVuSans-6f" transform="translate(69.824219 0)"/>
      <use xlink:href="#DejaVuSans-75" transform="translate(131.005859 0)"/>
      <use xlink:href="#DejaVuSans-6e" transform="translate(194.384766 0)"/>
      <use xlink:href="#DejaVuSans-63" transform="translate(257.763672 0)"/>
      <use xlink:href="#DejaVuSans-69" transform="translate(312.744141 0)"/>
      <use xlink:href="#DejaVuSans-6c" transform="translate(340.527344 0)"/>
      <use xlink:href="#DejaVuSans-20" transform="translate(368.310547 0)"/>
      <use xlink:href="#DejaVuSans-2b" transform="translate(400.097656 0)"/>
      <use xlink:href="#DejaVuSans-20" transform="translate(483.886719 0)"/>
      <use xlink:href="#DejaVuSans-73" transform="translate(515.673828 0)"/>
      <use xlink:href="#DejaVuSans-65" transform="translate(567.773438 0)"/>
      <use xlink:href="#DejaVuSans-6c" transform="translate(629.296875 0)"/>
      <use xlink:href="#DejaVuSans-66" transform="translate(657.080078 0)"/>
      <use xlink:href="#DejaVuSans-2d" transform="translate(686.785156 0)"/>
      <use xlink:href="#DejaVuSans-72" transform="translate(722.869141 0)"/>
      <use xlink:href="#DejaVuSans-65" transform="translate(761.732422 0)"/>
      <use xlink:href="#DejaVuSans-70" transform="translate(823.255859 0)"/>
      <use xlink:href="#DejaVuSans-61" transform="translate(886.732422 0)"/>
      <use xlink:href="#DejaVuSans-69" transform="translate(948.011719 0)"/>
      <use xlink:href="#DejaVuSans-72" transform="translate(975.794922 0)"/>
      <use xlink:href="#DejaVuSans-20" transform="translate(1016.908203 0)"/>
      <use xlink:href="#DejaVuSans-28" transform="translate(1048.695312 0)"/>
      <use xlink:href="#DejaVuSans-6f" transform="translate(1087.708984 0)"/>
      <use xlink:href="#DejaVuSans-6e" transform="translate(1148.890625 0)"/>
      <use xlink:href="#DejaVuSans-65" transform="translate(1212.269531 0)"/>
      <use xlink:href="#DejaVuSans-20" transform="translate(1273.792969 0)"/>
      <use xlink:href="#DejaVuSans-65" transform="translate(1305.580078 0)"/>
      <use xlink:href="#DejaVuSans-78" transform="translate(1365.353516 0)"/>
      <use xlink:href="#DejaVuSans-61" transform="translate(1424.533203 0)"/>
      <use xlink:href="#DejaVuSans-6d" transform="translate(1485.8125 0)"/>
      <use xlink:href="#DejaVuSans-70" transform="translate(1583.224609 0)"/>
      <use xlink:href="#DejaVuSans-6c" transform="translate(1646.701172 0)"/>
      <use xlink:href="#DejaVuSans-65" transform="translate(1674.484375 0)"/>
      <use xlink:href="#DejaVuSans-20" transform="translate(1736.007812 0)"/>
      <use xlink:href="#DejaVuSans-65" transform="translate(1767.794922 0)"/>
      <use xlink:href="#DejaVuSans-70" transform="translate(1829.318359 0)"/>
      <use xlink:href="#DejaVuSans-29" transform="translate(1892.794922 0)"/>
     </g>
    </g>
   </g>
  </g>
 </g>
 <defs>
  <clipPath id="p8cb3070db0">
   <rect x="44.57" y="26.88" width="376.63" height="215.968256"/>
  </clipPath>
 </defs>
</svg>
